<svg version="1.1" viewBox="0.0 0.0 842.7480314960629 720.9160104986877" fill="none" stroke="none" stroke-linecap="square" stroke-miterlimit="10" xmlns:xlink="http://www.w3.org/1999/xlink" xmlns="http://www.w3.org/2000/svg" style="opacity: 0.07"><clipPath id="p.0"><path d="m0 0l842.74805 0l0 720.916l-842.74805 0l0 -720.916z" clip-rule="nonzero"/></clipPath><g clip-path="url(#p.0)"><path fill="#000000" fill-opacity="0.0" d="m0 0l842.74805 0l0 720.916l-842.74805 0z" fill-rule="evenodd"/><path fill="#ff0000" d="m470.895 34.719162l0 0c3.3310852 -5.7663746 10.704254 -7.737417 16.468384 -4.4024467l328.07108 189.81277c2.7680664 1.6015015 4.7872314 4.237442 5.6134033 7.327942c0.8262329 3.0904999 0.3916626 6.3823853 -1.2080078 9.1515045l0 0l0 0c-3.3310547 5.7663727 -10.704224 7.7374115 -16.468384 4.4024353l-328.07108 -189.81276c-5.7641296 -3.3349686 -7.736511 -10.71307 -4.4053955 -16.479443z" fill-rule="evenodd"/><path fill="#ff9900" d="m441.66147 129.85303l0 0c3.3310852 -5.7663803 10.704346 -7.7375717 16.468567 -4.4027863l347.91324 201.278c2.7680664 1.6014099 4.7873535 4.237274 5.6135254 7.3276978c0.8262329 3.090454 0.39172363 6.3822937 -1.2079468 9.151398l0 0l0 0c-3.3311157 5.766388 -10.704346 7.7375793 -16.468567 4.4028015l-347.91324 -201.27802c-5.7642517 -3.3347778 -7.7366943 -10.712723 -4.4055786 -16.479095z" fill-rule="evenodd"/><path fill="#ffff00" d="m390.3623 142.59325l0 0c3.3310852 -5.7663727 10.704285 -7.7374725 16.468445 -4.4025726l361.61426 209.21457c2.7680664 1.6015015 4.7872925 4.2373962 5.6134644 7.327881c0.8261719 3.090454 0.3916626 6.3823547 -1.2080078 9.151459l0 0l0 0c-3.3310547 5.766388 -10.704285 7.7374573 -16.468445 4.4025574l-361.61426 -209.21457c-5.76416 -3.3349 -7.7365723 -10.712952 -4.4054565 -16.479324z" fill-rule="evenodd"/><path fill="#00ff00" d="m220.0213 134.53036l0 0c3.3311005 -5.7663727 10.7043 -7.7374954 16.46849 -4.4026184l583.7874 337.75012c2.7680664 1.601471 4.7872925 4.2373657 5.6134644 7.32782c0.8262329 3.090454 0.3916626 6.382324 -1.2079468 9.151459l0 0l0 0c-3.3311157 5.7663574 -10.704346 7.737488 -16.468506 4.4026184l-583.7874 -337.75012c-5.764206 -3.3348694 -7.736618 -10.712891 -4.4055023 -16.479263z" fill-rule="evenodd"/><path fill="#4a86e8" d="m274.67838 249.68504l0 0c3.3311157 -5.7663727 10.704346 -7.7375793 16.468628 -4.402832l381.83438 220.90016c2.7681274 1.6014099 4.7874146 4.2372437 5.6135864 7.327667c0.8262329 3.0904236 0.39172363 6.382263 -1.2079468 9.151398l0 0l0 0c-3.3311157 5.7663574 -10.704346 7.7375793 -16.468628 4.4028015l-381.8344 -220.90015c-5.7642517 -3.3347473 -7.736725 -10.712677 -4.405609 -16.47905z" fill-rule="evenodd"/><path fill="#9900ff" d="m202.53342 312.0791l0 0c3.322403 -5.766388 10.687927 -7.7434387 16.45134 -4.415924l514.34143 296.9578c2.7677002 1.5979614 4.788208 4.2304688 5.6171265 7.3184204c0.8288574 3.0880127 0.39819336 6.378479 -1.1972656 9.147583l0 0l0 0c-3.3224487 5.7663574 -10.687927 7.743408 -16.451355 4.4158936l-514.34143 -296.9578c-5.7634125 -3.3275452 -7.7422485 -10.6996155 -4.4198456 -16.465973z" fill-rule="evenodd"/><path fill="#ff00ff" d="m325.9444 456.58777l0 0c3.3223877 -5.7663574 10.687897 -7.743408 16.451263 -4.415802l200.38876 115.697784c2.7677002 1.5979614 4.788208 4.2304688 5.6170654 7.3184814c0.82891846 3.0880127 0.39819336 6.378479 -1.1972656 9.147583l0 0l0 0c-3.3223877 5.7663574 -10.687866 7.743408 -16.451294 4.4158325l-200.38876 -115.697784c-5.7633667 -3.3276062 -7.7421875 -10.699707 -4.4197693 -16.466095z" fill-rule="evenodd"/></g>
<animateTransform attributeName="transform"
                          attributeType="XML"
                          type="translate"
                          from="2500 2500"
                          to="-1500 0"
                          dur="6s"
                          repeatCount="indefinite"/>
</svg>