<svg xmlns="http://www.w3.org/2000/svg" viewBox="0 0 440 120" fill="none" stroke="none" stroke-linecap="square" stroke-miterlimit="10"><clipPath id="A"><path d="M0 0h440v120H0V0z"/></clipPath><g clip-path="url(#A)"><g fill="#000" fill-rule="evenodd"><path fill-opacity="0" d="M0 0h440v120H0z"/></g><path fill="#fff" d="M32.373 98.044v-78.72h31.813q19.563 0 27.89 6.594 8.344 6.594 8.344 21.234 0 20.172-15.953 26.047l17.516 24.844h11.28v5.156h-30.61L64.06 76.434H51.107V103.2h-30.36v-5.156h11.625zM64.78 60.247q9.594 0 13.078-3.125 3.484-3.125 3.484-9.906 0-6.78-3.61-9.297-3.594-2.516-12.594-2.516h-14.03v24.844H64.78zM109.3 103.2v-5.156h9.125q-2.406-2.766-2.406-7.016 0-4.266 3.063-7.328 3.063-3.062 7.5-3.062 4.438 0 7.5 3.063 3.063 3.063 3.063 7.266 0 4.188-2.53 7.078h9.25v5.156H109.3zm66.247-5.156v5.156H143.86v-5.156h31.688zm10.305 0v-78.72h60.484v16.672h-41.75v17.28h37.547v15.97h-37.547v17.39h43.078v11.406h11.64v5.156h-85.078v-5.156h11.625zm107.527 0v5.156h-39.36v-5.156h10.313v-78.72h18.734v78.72h10.313zm50.516-41.64l29.64 41.64h9.97v5.156h-28.078l-24.61-33.125-8.39 9.36V103.2H293.38v-5.156h10.313v-78.72h18.734v34.438L354.1 19.325h23.156l-33.36 37.078zm74.044 41.64v5.156h-39.36v-5.156h10.313v-78.72h18.734v78.72h10.313z"/></g></svg>