<?xml version="1.0" encoding="utf-8"?>
<!-- Generator: Adobe Illustrator 16.0.0, SVG Export Plug-In . SVG Version: 6.00 Build 0)  -->
<!DOCTYPE svg PUBLIC "-//W3C//DTD SVG 1.1//EN" "http://www.w3.org/Graphics/SVG/1.1/DTD/svg11.dtd">
<svg version="1.1" id="Layer_1" xmlns="http://www.w3.org/2000/svg" xmlns:xlink="http://www.w3.org/1999/xlink" x="0px" y="0px"
	 width="1434px" height="1434px" viewBox="0 0 1434 1434" enable-background="new 0 0 1434 1434" xml:space="preserve">
<path fill="#F26644" d="M1428.591,628.591C1385.025,274.316,1083.053,0,717,0C321.012,0,0,321.013,0,717
	c0,366.055,274.316,668.025,628.591,711.591c28.973,3.563,58.475,5.409,88.409,5.409c395.989,0,717-321.011,717-717
	C1434,687.065,1432.153,657.563,1428.591,628.591z"/>
<polygon opacity="0.3" fill="#231F20" enable-background="new    " points="1028.673,612.824 1028.673,612.824 745.123,613.595 
	745.123,329.274 "/>
<polygon opacity="0.3" fill="#231F20" enable-background="new    " points="629.196,612.824 629.196,612.824 345.647,613.595 
	345.647,329.274 "/>
<rect x="356.783" y="599.807" opacity="0.3" fill="#231F20" enable-background="new    " width="732.073" height="468.047"/>
<path opacity="0.3" fill="#231F20" enable-background="new    " d="M1434,717c0-29.935-1.847-59.438-5.409-88.409L1117,317v800H317
	l311.591,311.591c28.973,3.563,58.475,5.409,88.409,5.409C1112.988,1434,1434,1112.989,1434,717z"/>
<path fill="#FFFFFF" d="M1077,357c0,88.365-71.635,160-160,160s-160-71.635-160-160c0-22.091-17.908-40-40-40s-40,17.909-40,40
	c0,88.366-71.634,160-160,160s-160-71.634-160-160c0-22.091-17.908-40-40-40v40v40v720h800V397v-40v-40
	C1094.908,317,1077,334.909,1077,357z M1037,1037H397V877h640V1037z M1037,797H397V637h640V797z"/>
</svg>
